# xmcd
#
# Track frame offsets:
#	150
#	8675
#	16587
#	21550
#	26442
#	32860
#	38587
#	44082
#	51760
#	57030
#	62325
#	67602
#	72870
#	78675
#	84457
#	90230
#	95140
#	100854
#	106130
#	111437
#	116520
#	121570
#	126642
#	131692
#	137430
#	143152
#	148907
#	159217
#	166945
#	172125
#	177302
#	186397
#	192300
#	198452
#	204352
#	210237
#	216112
#	222607
#	228660
#	234702
#	239509
#	243317
#	249700
#	255107
#	260382
#	265352
#	269902
#	274712
#	279385
#	284200
#	289990
#	295555
#	303560
#	308795
#	313190
#	318122
#	323025
#	328522
#
# Disc length: 4463
#
# Revision: 1
# Processed by: cddbd v1.5.1PL0 Copyright (c) Steve Scherf et al.
# Submitted via: CDex 1.51
# Normalized: r0:TRMNUM
#
DISCID=64116d3a
DTITLE=Irma Miria - Cantando os Salmos Ano A vol 2
DYEAR=2001
DGENRE=Religioso
TTITLE0=Pentecostes Dia Sl 104
TTITLE1=Pentecostes Sequencia
TTITLE2=SS Trindade
TTITLE3=Corpus Christi Sl 148
TTITLE4=Corpus Christi Sequencia
TTITLE5=Sagrado Coracao de Jesus
TTITLE6=Tempo Comum 2 dom
TTITLE7=Tempo Comum 3 dom
TTITLE8=Tempo Comum 4 dom
TTITLE9=Tempo Comum 5 dom
TTITLE10=Tempo Comum 6 dom
TTITLE11=Tempo Comum 7 dom
TTITLE12=Tempo Comum 8 dom
TTITLE13=Tempo Comum 9 dom
TTITLE14=Tempo Comum 10 dom
TTITLE15=Tempo Comum 11 dom
TTITLE16=Tempo Comum 12 dom
TTITLE17=Tempo Comum 13 dom
TTITLE18=Tempo Comum 14 dom
TTITLE19=Tempo Comum 15 dom
TTITLE20=Tempo Comum 16 dom
TTITLE21=Tempo Comum 17 dom
TTITLE22=Tempo Comum 18 dom
TTITLE23=Tempo Comum 19 dom
TTITLE24=Tempo Comum 20 dom
TTITLE25=Tempo Comum 21 dom
TTITLE26=Tempo Comum 22 dom
TTITLE27=Tempo Comum 23 dom
TTITLE28=Tempo Comum 24 dom
TTITLE29=Tempo Comum 25 dom
TTITLE30=Tempo Comum 26 dom
TTITLE31=Tempo Comum 27 dom
TTITLE32=Tempo Comum 28 dom
TTITLE33=Tempo Comum 29 dom
TTITLE34=Tempo Comum 30 dom
TTITLE35=Tempo Comum 31 dom
TTITLE36=Tempo Comum 32 dom
TTITLE37=Tempo Comum 33 dom
TTITLE38=Tempo Comum 34 dom
TTITLE39=N S Conceicao 8 dez Sl 98 97
TTITLE40=Apresentacao do Senhor Sl 24 23
TTITLE41=S Joao Batista Vigilia 71 70
TTITLE42=S Joao Batista Dia 139 138
TTITLE43=S Pedro Vigilia 19 18
TTITLE44=S Pedro Dia 33 33
TTITLE45=Transfiguracao 97 96
TTITLE46=Assuncao Vigilia 132 131
TTITLE47=Assuncao Dia 45 44
TTITLE48=Exaltacao St Cruz 78 77
TTITLE49=N S Aparecida 12 out 45 44
TTITLE50=Todos os Santos 24 23
TTITLE51=Finados 1 Sl 27 26
TTITLE52=Finados 2 Sl 25 24
TTITLE53=Finados 3 Sl 46 45
TTITLE54=Finados 4 Sl 23 22
TTITLE55=Finados 5 Sl 130 129
TTITLE56=Finados 6 Sl 115 114
TTITLE57=Dedicacao da Basilia Latrao Sl 46 45
EXTD=YEAR: 2001
EXTT0=
EXTT1=
EXTT2=
EXTT3=
EXTT4=
EXTT5=
EXTT6=
EXTT7=
EXTT8=
EXTT9=
EXTT10=
EXTT11=
EXTT12=
EXTT13=
EXTT14=
EXTT15=
EXTT16=
EXTT17=
EXTT18=
EXTT19=
EXTT20=
EXTT21=
EXTT22=
EXTT23=
EXTT24=
EXTT25=
EXTT26=
EXTT27=
EXTT28=
EXTT29=
EXTT30=
EXTT31=
EXTT32=
EXTT33=
EXTT34=
EXTT35=
EXTT36=
EXTT37=
EXTT38=
EXTT39=
EXTT40=
EXTT41=
EXTT42=
EXTT43=
EXTT44=
EXTT45=
EXTT46=
EXTT47=
EXTT48=
EXTT49=
EXTT50=
EXTT51=
EXTT52=
EXTT53=
EXTT54=
EXTT55=
EXTT56=
EXTT57=
PLAYORDER=
